<svg version="1.2" xmlns="http://www.w3.org/2000/svg" viewBox="0 0 242 25" width="242" height="25">
	<title>Discussion Box Logo</title>
	<style>
		.s0 { fill: #ffffff } 
	</style>
	<g id="Discussion Box Logo">
		<path id="Path 1510" fill-rule="evenodd" class="s0" d="m0 14.7c0-4.8 3-8.2 7.9-8.2 3.4 0 5.4 1.4 6 3.5v-9.7h2.7v22.6h-2.7c0.1-1.4 0.2-2.9 0.2-4.3h-0.1c-0.6 2.8-2.7 4.6-6.3 4.6-4.7 0-7.7-3.4-7.7-8.5zm13.9 0.3v-0.8c0-3.2-2.2-5.3-5.8-5.3-3.3 0-5.5 2.5-5.5 5.8 0 3.6 2.2 6.1 5.5 6.1 3.6 0 5.8-2.2 5.8-5.8z"/>
		<path id="Path 1511" class="s0" d="m21.6 1.4h2.8v3.3h-2.8zm0.1 5.4h2.6v16.1h-2.6z"/>
		<path id="Path 1512" class="s0" d="m28.6 17.5h2.5c0 2.2 1.3 3.4 4.6 3.4 3.4 0 5-1 5-2.7 0-0.6-0.2-1.3-1.1-1.7-0.7-0.3-2.4-0.5-4.4-0.7-2.6-0.2-4.2-0.6-5.2-1.3-0.9-0.6-1.4-1.8-1.4-3 0-3 2.8-5 7.1-5 4.9 0 6.9 2.1 6.9 5.8h-2.4c-0.1-2.5-1.5-3.6-4.4-3.6-2.7 0-4.5 1-4.5 2.6 0 0.7 0.1 1.5 1 1.9 0.8 0.3 2.4 0.5 4.5 0.7 2.5 0.3 3.8 0.5 4.9 1.1 1 0.7 1.6 1.9 1.6 3.1 0 3.2-2.6 5.1-7.5 5.1-5.5 0-7.2-2.6-7.2-5.7z"/>
		<path id="Path 1513" class="s0" d="m46.3 14.7c0-5.1 3.1-8.3 8-8.3 4.3 0 7 2.6 7 6.7h-2.4c0-2.6-1.8-4.3-4.6-4.3-3.2 0-5.3 2.3-5.3 5.9 0 3.7 2 6 5.1 6 3 0 4.9-1.6 4.9-4.3h2.4c0 4.1-2.9 6.7-7.3 6.7-4.7 0-7.8-3.3-7.8-8.4z"/>
		<path id="Path 1514" class="s0" d="m65.1 16.7v-9.9h2.6v9.5c0 2.8 1.9 4.5 4.9 4.5 3.8 0 6.2-2.5 6.2-6.7v-7.3h2.6v16.1h-2.6c0.1-1.1 0.1-3.1 0.1-4.7-0.7 3-3 5-7 5-4.2 0-6.8-2.5-6.8-6.5z"/>
		<path id="Path 1515" class="s0" d="m84.8 17.5h2.5c0 2.2 1.3 3.4 4.6 3.4 3.4 0 5-1 5-2.7 0-0.6-0.2-1.3-1.1-1.7-0.7-0.3-2.4-0.5-4.4-0.7-2.6-0.2-4.2-0.6-5.2-1.3-0.9-0.6-1.4-1.8-1.4-3 0-3 2.8-5 7.1-5 4.9 0 6.9 2.1 6.9 5.8h-2.4c-0.1-2.5-1.5-3.6-4.4-3.6-2.8 0-4.5 1-4.5 2.6 0 0.7 0 1.5 1 1.9 0.8 0.3 2.4 0.5 4.5 0.7 2.5 0.3 3.8 0.5 4.9 1.1 1 0.7 1.6 1.9 1.6 3.1 0 3.2-2.6 5.1-7.5 5.1-5.5 0-7.2-2.6-7.2-5.7z"/>
		<path id="Path 1516" class="s0" d="m102.5 17.5h2.4c0 2.2 1.3 3.4 4.7 3.4 3.3 0 4.9-1 4.9-2.7 0-0.6-0.2-1.3-1-1.7-0.8-0.3-2.5-0.5-4.5-0.7-2.6-0.2-4.2-0.6-5.2-1.3-0.9-0.6-1.3-1.8-1.3-3 0-3 2.8-5 7.1-5 4.8 0 6.8 2.1 6.8 5.8h-2.4c0-2.5-1.5-3.6-4.3-3.6-2.8 0-4.6 1-4.6 2.6 0 0.7 0.1 1.5 1 1.9 0.8 0.3 2.4 0.5 4.5 0.7 2.6 0.3 3.8 0.5 4.9 1.1 1.1 0.7 1.6 1.9 1.6 3.1 0 3.2-2.6 5.1-7.5 5.1-5.4 0-7.1-2.6-7.1-5.7z"/>
		<path id="Path 1517" class="s0" d="m121.4 1.4h2.8v3.3h-2.8zm0.1 5.4h2.6v16.1h-2.6z"/>
		<path id="Path 1518" class="s0" d="m148.4 6.8h2.7l-0.1 4.3c0.9-2.8 3.2-4.6 7-4.6 4.3 0 6.8 2.5 6.8 6.3v10.1h-2.6v-9.5c0-2.8-1.6-4.5-5.1-4.5-3.7 0-6 2.2-6 6.1v7.9h-2.7z"/>
		<path id="Path 1519" fill-rule="evenodd" class="s0" d="m191.7 19.2c0 1.3 0 2.9 0.1 3.7h-2.6v-22.6h2.6v7.7c0 0.7 0 2-0.1 2.8h0.1c0.7-2.6 3-4.3 6.5-4.3 4.6 0 7.5 3.1 7.5 8 0 5.3-2.9 8.7-7.4 8.7-3.7 0-6-1.6-6.7-4zm11.5-4.6c0-3.5-2-5.7-5.4-5.7-3.6 0-6 2.3-6 6v0.8c0 3.1 2.3 5.1 5.9 5.1 3.4 0 5.5-2.4 5.5-6.2z"/>
		<path id="Path 1520" class="s0" d="m231.4 14.6l-6.1-7.8h3.4l4.7 6.3 4.7-6.3h3.1l-6.1 7.9 6.4 8.2h-3.4l-5-6.6-4.9 6.6h-3.2z"/>
		<path id="Path 1521" class="s0" d="m213.4 24.2h0.2l13.1-6.1 0.1-0.2-6.1-13.1h-0.2l-13.1 6.1-0.1 0.2z"/>
		<path id="Path 1522" class="s0" d="m130.1 22.9l0.2 0.1 14.5-2.5 0.2-0.2-2.5-14.5-0.2-0.1-14.5 2.5-0.2 0.1z"/>
	</g>
</svg>